{
	"asset":{
		"generator":"Khronos glTF Blender I/O v4.1.63",
		"version":"2.0"
	},
	"scene":0,
	"scenes":[
		{
			"name":"Scene",
			"nodes":[
				0
			]
		}
	],
	"nodes":[
		{
			"mesh":0,
			"name":"Object_3",
			"rotation":[
				-0.70710688829422,
				0,
				0,
				0.7071066498756409
			]
		}
	],
	"materials":[
		{
			"doubleSided":true,
			"name":"Flatbed_Page01.004",
			"pbrMetallicRoughness":{
				"metallicFactor":0.25818198919296265,
				"roughnessFactor":0.8828240036964417
			}
		}
	],
	"meshes":[
		{
			"name":"Object_1",
			"primitives":[
				{
					"attributes":{
						"POSITION":0,
						"NORMAL":1,
						"TEXCOORD_0":2
					},
					"indices":3,
					"material":0
				}
			]
		}
	],
	"accessors":[
		{
			"bufferView":0,
			"componentType":5126,
			"count":2099,
			"max":[
				1.2201600074768066,
				5.6569600105285645,
				1.723080039024353
			],
			"min":[
				-1.2201600074768066,
				-5.629859924316406,
				0.30546998977661133
			],
			"type":"VEC3"
		},
		{
			"bufferView":1,
			"componentType":5126,
			"count":2099,
			"type":"VEC3"
		},
		{
			"bufferView":2,
			"componentType":5126,
			"count":2099,
			"type":"VEC2"
		},
		{
			"bufferView":3,
			"componentType":5123,
			"count":4200,
			"type":"SCALAR"
		}
	],
	"bufferViews":[
		{
			"buffer":0,
			"byteLength":25188,
			"byteOffset":0,
			"target":34962
		},
		{
			"buffer":0,
			"byteLength":25188,
			"byteOffset":25188,
			"target":34962
		},
		{
			"buffer":0,
			"byteLength":16792,
			"byteOffset":50376,
			"target":34962
		},
		{
			"buffer":0,
			"byteLength":8400,
			"byteOffset":67168,
			"target":34963
		}
	],
	"buffers":[
		{
			"byteLength":75568,
			"uri":"scene2.bin"
		}
	]
}
